<?xml version="1.0" standalone="no"?>
<!DOCTYPE svg PUBLIC "-//W3C//DTD SVG 1.1//EN" "http://www.w3.org/Graphics/SVG/1.1/DTD/svg11.dtd" >
<svg xmlns="http://www.w3.org/2000/svg">
<metadata></metadata>
<defs>
<font id="eurose_wide-heavyregular" horiz-adv-x="1562" >
<font-face units-per-em="2048" ascent="1638" descent="-410" />
<missing-glyph horiz-adv-x="868" />
<glyph unicode="&#xd;" horiz-adv-x="868" />
<glyph horiz-adv-x="0" />
<glyph horiz-adv-x="0" />
<glyph unicode=" "  horiz-adv-x="868" />
<glyph unicode="&#x09;" horiz-adv-x="868" />
<glyph unicode="&#xa0;" horiz-adv-x="868" />
<glyph unicode="!" horiz-adv-x="858" d="M215 1354h391l-24 -916h-340zM238 0v274h354v-274h-354z" />
<glyph unicode="&#x22;" horiz-adv-x="1216" d="M113 1358h434l-72 -543h-295zM672 1358h430l-70 -543h-295z" />
<glyph unicode="#" horiz-adv-x="2115" d="M125 449l72 129h370l111 217h-373l74 131h371l137 252h198l-137 -252h355l135 252h202l-133 -252h359l-64 -131h-366l-119 -217h371l-74 -129h-365l-139 -259h-197l138 259h-357l-137 -259h-203l138 259h-367zM764 578h356l113 217h-350z" />
<glyph unicode="$" horiz-adv-x="1957" d="M94 463h369q0 -193 139 -221q59 -12 248 -13v355q-287 0 -391 14q-182 25 -266 104q-98 92 -99 281q0 236 213 322q166 68 543 67v129h254v-129q399 0 538 -67q180 -88 181 -357h-375q0 131 -72 164q-55 25 -272 25v-328q260 0 391 -21q188 -29 281 -106 q109 -90 108 -254q0 -246 -203 -344q-178 -86 -577 -86v-148h-254v148q-287 0 -393 16q-184 29 -267 119q-96 106 -96 330zM492 989q0 -117 94 -149q66 -23 264 -23v320q-119 -6 -178 -17q-180 -37 -180 -131zM1104 227q231 0 308 44t77 132q0 111 -76 146q-53 25 -209 24 h-100v-346z" />
<glyph unicode="%" horiz-adv-x="2514" d="M113 856v320q0 88 89 136t193 48h305q109 0 203 -47q109 -55 109 -137v-293q0 -111 -99 -170q-86 -51 -213 -51h-305q-109 0 -190 49q-92 55 -92 145zM322 932q0 -63 31.5 -91t107.5 -28h176q92 0 128 25.5t36 93.5v158q0 70 -36 97t-128 27h-176q-74 0 -106.5 -28.5 t-32.5 -95.5v-158zM479 0l1336 1358h262l-1340 -1358h-258zM1532 188v318q0 92 88 140t195 48h303q109 0 202 -49q109 -57 109 -139v-293q0 -111 -100 -168q-84 -49 -211 -49h-303q-111 0 -197 51t-86 141zM1739 266q0 -121 137 -121h176q94 0 131 25.5t37 95.5v158 q0 68 -38 95.5t-130 27.5h-176q-74 0 -105.5 -27.5t-31.5 -95.5v-158z" />
<glyph unicode="&#x26;" horiz-adv-x="2168" d="M160 438q0 156 69 232q80 86 285 112q-70 59 -94 97q-41 61 -41 141q0 201 184 274q139 55 471 56q354 0 490 -58q178 -76 178 -299v-88h-377q0 145 -35 176q-45 41 -241 41q-145 0 -187 -10q-84 -20 -84 -94q0 -66 29 -98q23 -25 115 -76l591 -330q16 39 17 82 q0 47 -17 80h357q10 -57 13 -94t3 -60q0 -63 -18 -119q-7 -18 -27 -67l301 -170l-213 -170l-243 135q-90 -86 -269 -119q-125 -23 -334 -22h-229q-301 0 -457 67q-238 104 -237 381zM559 457q0 -154 100 -203q59 -29 224 -29h196q125 0 190.5 10.5t129.5 53.5l-637 348 q-131 -20 -167 -54t-36 -126z" />
<glyph unicode="'" horiz-adv-x="651" d="M113 1358h422l-70 -543h-287z" />
<glyph unicode="(" horiz-adv-x="964" d="M172 252v563q0 326 76 418q121 145 571 145v-241q-168 0 -223 -76q-39 -53 -39 -184v-62v-563q0 -135 131 -191q43 -16 131 -26v-242q-371 0 -516 113q-131 102 -131 346z" />
<glyph unicode=")" horiz-adv-x="964" d="M150 35q188 0 237 96q25 47 25 225v564q0 135 -131 190q-43 16 -131 27v239q371 0 516 -112q133 -102 133 -344v-564q0 -326 -76 -417q-123 -147 -573 -148v244z" />
<glyph unicode="*" horiz-adv-x="1957" d="M424 1051l86 149l352 -86v246h230v-246l360 86l76 -162l-352 -75l210 -197l-182 -90l-223 203l-233 -203l-191 92l215 195z" />
<glyph unicode="+" d="M143 616v197h527v363h221v-363h532v-197h-532v-364h-221v364h-527z" />
<glyph unicode="," horiz-adv-x="698" d="M139 -96q82 0 117 17.5t35 64.5h-127v260h352v-236q0 -133 -59 -182q-70 -57 -267 -57h-51v133z" />
<glyph unicode="-" horiz-adv-x="737" d="M-2 387v234h737v-234h-737z" />
<glyph unicode="." horiz-adv-x="659" d="M156 2v248h346v-248h-346z" />
<glyph unicode="/" horiz-adv-x="1892" d="M16 -203l1377 1561h295l-1379 -1561h-293z" />
<glyph unicode="0" horiz-adv-x="1957" d="M113 377v620q0 174 184 277q156 86 362 86h590q213 0 396 -94q208 -109 208 -269v-571q0 -211 -194 -328q-168 -100 -410 -100l-590 2q-213 0 -370 96q-176 106 -176 281zM514 528q0 -127 61.5 -180t208.5 -53h340q182 0 252 48t70 185v306q0 131 -73 185t-249 54h-340 q-145 0 -207.5 -54t-62.5 -185v-306z" />
<glyph unicode="1" horiz-adv-x="1957" d="M217 946l668 412h483v-1358h-395v1102l-506 -332z" />
<glyph unicode="2" horiz-adv-x="1957" d="M156 0v291q0 160 80 244q72 76 231 112q106 25 370.5 50.5t360.5 66.5q123 51 123 172q0 63 -89 95t-288 32q-229 0 -309 -31t-80 -119v-59h-399v74q0 102 33.5 168.5t115.5 142.5q92 84 295 111q113 14 344 14q416 0 582 -76q203 -92 203 -352q0 -225 -144 -342 q-117 -94 -364 -137q-102 -18 -486 -51q-119 -12 -151 -44q-25 -25 -25 -108v-18h1170v-236h-1573z" />
<glyph unicode="3" horiz-adv-x="1957" d="M145 391q0 18 1 38t8 52h397q0 -131 58.5 -172t275.5 -41h80q227 0 297 21q98 29 98 127q0 88 -63.5 109.5t-249.5 21.5h-256v270l235 2h58.5h27.5q141 0 180 20.5t39 108.5t-108 115q-68 16 -275 16q-240 0 -300 -31.5t-70 -150.5h-398q0 236 160 348q174 123 575 123 q264 0 400 -16q207 -25 305 -95q121 -84 121 -249q0 -137 -64 -201q-73 -75 -268 -100q205 -18 282.5 -88t77.5 -216q0 -199 -219 -307t-594 -108q-352 0 -581.5 110.5t-229.5 292.5z" />
<glyph unicode="4" horiz-adv-x="1957" d="M82 287v301l917 770h596v-803h240v-268h-240v-287h-401v287h-1112zM453 555h735l2 567z" />
<glyph unicode="5" horiz-adv-x="1957" d="M184 420h408q0 -109 86 -137q59 -20 258 -21q242 0 315 21q113 31 113 145v66q0 111 -57 149q-68 47 -269 47h-135h-92q-111 0 -155 -18.5t-54 -53.5h-371v740h1459v-293h-1084v-205q82 53 191.5 68.5t269.5 15.5q381 0 545 -99.5t164 -344.5q0 -199 -58 -299 q-90 -156 -336 -187q-100 -12 -229 -18t-233 -6h-91.5t-93.5 -2q-225 0 -320.5 40t-150.5 119q-45 63 -62.5 127t-17.5 146z" />
<glyph unicode="6" horiz-adv-x="1955" d="M145 909q0 279 195 375q166 82 610 82q283 0 410 -20q182 -29 270 -115q98 -94 99 -277h-408q0 84 -63.5 111t-223.5 27h-178q-160 0 -240 -58q-61 -43 -61 -106v-187q57 51 147.5 76t307.5 25q391 0 546 -70q193 -86 193 -332q0 -252 -213 -358q-184 -92 -582 -92 q-420 0 -596 84q-211 100 -211 366zM553 432q0 -119 133 -170q98 -37 264 -37q164 0 256 35q131 49 131 166q0 113 -131 154q-84 27 -260 26q-174 0 -256 -24q-137 -41 -137 -150z" />
<glyph unicode="7" horiz-adv-x="1957" d="M145 1053v305h1549l-2 -320l-842 -1038h-465l850 1053h-1090z" />
<glyph unicode="8" horiz-adv-x="1955" d="M143 399q0 135 62.5 203t228.5 103q-154 39 -206 99t-52 189q0 213 172 299q147 74 483 74h232q348 0 502 -72q176 -82 176 -295q0 -104 -47 -176q-64 -95 -205 -118q160 -35 218 -105t58 -203q0 -248 -186 -334q-160 -74 -569 -73h-54q-295 0 -430 20q-193 29 -282 113 q-100 92 -101 276zM555 410q0 -102 56.5 -129t230.5 -27h215q152 0 194 8q115 23 115 146q0 96 -55 129q-39 23 -140 22h-49l-313 4q-133 0 -176 -16q-78 -31 -78 -137zM582 997q0 -92 67 -129q49 -27 148 -26h293q109 0 167 30q76 39 76 127q0 82 -66.5 103.5t-244.5 21.5 h-129q-205 0 -258 -27.5t-53 -99.5z" />
<glyph unicode="9" horiz-adv-x="1957" d="M150 408h401q0 -111 56.5 -146t213.5 -35l197 2q193 0 256 31q78 37 78 154v204q-61 -55 -203 -79q-109 -18 -264 -19q-391 0 -541 74q-178 88 -178 332q0 266 178 360q156 82 571 82q438 0 617 -74q225 -92 225 -350l2 -422q0 -291 -147 -403q-170 -129 -633 -129h-43 q-301 0 -422 18q-186 29 -270 113q-94 94 -94 287zM582 950q0 -90 69 -125q53 -27 150 -26l301 2q106 0 162 28q70 37 69 125q0 80 -68.5 102.5t-242.5 22.5h-129q-137 0 -172 -4q-139 -16 -139 -125z" />
<glyph unicode=":" horiz-adv-x="659" d="M156 0v272h346v-272h-346zM156 680v270h346v-270h-346z" />
<glyph unicode=";" horiz-adv-x="655" d="M106 -92q154 0 154 86h-129v272h352v-248q0 -139 -63.5 -193t-263.5 -54h-50v137zM125 676v272h354v-272h-354z" />
<glyph unicode="&#x3c;" d="M102 575v222l1352 438v-268l-889 -279l889 -282v-269z" />
<glyph unicode="=" horiz-adv-x="1323" d="M47 510v141h1210v-141h-1210zM47 784v142h1210v-142h-1210z" />
<glyph unicode="&#x3e;" d="M102 967v278l1354 -448v-222l-1352 -436v269l887 280z" />
<glyph unicode="?" horiz-adv-x="1652" d="M154 922l2 67q0 109 14 156q27 86 113 135t228 67.5t296 18.5q373 0 514 -57q190 -78 190 -301q0 -102 -14 -152q-25 -82 -98 -137q-49 -37 -289 -101q-170 -45 -170 -145l-4 -49h-379q0 178 41 231q53 70 268 131q162 45 168 48q109 39 109 151q0 98 -58.5 132 t-210.5 34h-45q-180 0 -243.5 -29.5t-63.5 -136.5v-63h-368zM557 0v274h373v-274h-373z" />
<glyph unicode="@" horiz-adv-x="2187" d="M150 643q0 381 169.5 505t673.5 124h166q551 0 703 -78q182 -92 182 -432q0 -240 -57 -328q-82 -127 -347 -127q-119 0 -180 17q-88 23 -121 82q-47 -55 -131 -78t-207 -23q-250 0 -333 94q-63 72 -64 248q0 178 62 256q88 111 335 111q111 0 176.5 -14.5t120.5 -57.5v66 h285l-2 -435q8 -59 14 -71q20 -37 91 -37q55 0 77.5 16.5t35.5 60.5t16.5 89t3.5 129v49q0 182 -58 240q-70 70 -303 69q-117 0 -348 -2t-344 -2q-137 0 -224 -29.5t-122 -109.5q-27 -55 -35 -126t-8 -161v-37q0 -299 80 -375q109 -102 536 -102h183h49q137 0 205.5 5 t125.5 20q23 6 37 12q29 12 47 41l218 -64q-41 -51 -77 -77.5t-89 -42.5q-94 -31 -219 -40.5t-287 -9.5h-193q-315 0 -438 23q-203 37 -297 162q-109 143 -108 440zM879 621q0 -86 28 -117q39 -43 164 -43q152 0 197 43q35 33 35 135v76q0 76 -49.5 109.5t-166.5 33.5 q-131 0 -176 -43q-33 -31 -32 -110v-84z" />
<glyph unicode="A" horiz-adv-x="1966" d="M-12 0l692 1358h592l704 -1358h-432l-131 254h-856l-125 -254h-444zM688 547h596l-301 563z" />
<glyph unicode="B" horiz-adv-x="1988" d="M184 0v1358h1059q301 0 436 -72q150 -80 150 -274q0 -133 -47 -191q-60 -71 -240 -110q184 0 264 -86q70 -76 70 -226q0 -213 -133 -306t-465 -93h-1094zM604 266h481h97q154 0 200 21q70 31 70 133q0 117 -111 133q-43 6 -190 6h-547v-293zM604 825h477q41 0 80 -1 t74 -1q96 0 129 21q41 27 41 104q0 84 -45 102.5t-189 18.5h-567v-244z" />
<glyph unicode="C" horiz-adv-x="1935" d="M125 545v291q0 307 221 434q166 96 477 96h365q201 0 313 -20q166 -31 250 -115q68 -63 90 -162q14 -63 14 -186h-415q-14 66 -19 90q-10 41 -65 67q-35 16 -111 22.5t-205 6.5h-63q-141 0 -220 -6t-125 -44t-60.5 -90t-14.5 -153v-188q0 -201 64 -256q53 -45 237 -45h76 t80 2h26q41 0 80 -1t78 -1q127 0 182 20q72 27 72 103v100h414q0 -37 2 -66.5t4 -58.5q0 -221 -217 -317q-174 -78 -500 -78h-305q-422 0 -586 145q-139 123 -139 410z" />
<glyph unicode="D" horiz-adv-x="2093" d="M184 0v1358h1020q410 0 599.5 -119t189.5 -385l4 -227q0 -301 -123 -441q-164 -186 -602 -186h-1088zM606 270h537q266 0 354 99q63 72 64 260v202q0 115 -74 166q-90 63 -320 64h-561v-791z" />
<glyph unicode="E" horiz-adv-x="1716" d="M141 0v1358h1413v-301h-1003v-232h956v-262h-956v-274h1014v-289h-1424z" />
<glyph unicode="F" horiz-adv-x="1617" d="M182 0v1358h1379v-301h-955v-244h905v-291h-905v-522h-424z" />
<glyph unicode="G" horiz-adv-x="2017" d="M113 528v254q0 362 225 488q178 98 637 98h180q432 0 584 -74q188 -92 188 -368h-424q0 96 -51 134t-184 38h-414q-205 0 -266 -92q-39 -59 -39 -224v-260q0 -182 96 -225q74 -33 393 -33q248 0 310 10q164 27 163 220h-518v243h936v-262q0 -287 -135 -387 q-117 -86 -350 -86q-100 0 -252 -6t-154 -6q-506 0 -700 100q-225 117 -225 438z" />
<glyph unicode="H" horiz-adv-x="2136" d="M184 0v1358h422v-518h920v518h428v-1358h-428v545h-920v-545h-422z" />
<glyph unicode="I" horiz-adv-x="765" d="M178 0v1358h400v-1358h-400z" />
<glyph unicode="J" horiz-adv-x="1622" d="M70 362v191h399v-125q0 -113 43 -148.5t215 -35.5q166 0 227.5 32.5t61.5 137.5v944h422v-942q0 -238 -143.5 -332t-512.5 -94q-365 0 -516 63q-197 82 -196 309z" />
<glyph unicode="K" horiz-adv-x="1982" d="M109 2v1356h421v-514h164l660 514h530l-837 -660l923 -694h-547l-729 545h-164v-547h-421z" />
<glyph unicode="L" horiz-adv-x="1570" d="M182 0v1358h428v-1055h942v-303h-1370z" />
<glyph unicode="M" horiz-adv-x="2586" d="M184 0v1358h664l455 -946l495 946h631v-1358h-406v1022l-528 -1022h-373l-538 1020v-1020h-400z" />
<glyph unicode="N" horiz-adv-x="2031" d="M111 0v1358h673l701 -1061v1061h420v-1358h-680l-713 1063v-1063h-401z" />
<glyph unicode="O" horiz-adv-x="1988" d="M113 426v524q0 178 184 301q164 109 362 109h631q246 0 418 -103q193 -114 193 -307v-524q0 -209 -209 -328q-178 -100 -420 -100q-16 -2 -72.5 -3t-95.5 -1q-227 0 -298 1t-124 5q-231 0 -393 111q-176 119 -176 315zM537 551q0 -133 65.5 -207t204.5 -74h340 q174 0 248.5 70t74.5 211v248q0 141 -71 215q-80 84 -252 84h-340q-137 0 -203.5 -76t-66.5 -213v-258z" />
<glyph unicode="P" horiz-adv-x="1904" d="M182 0v1358h834q455 0 618 -80q201 -98 201 -387q0 -283 -195 -381q-164 -82 -602 -82h-440v-428h-416zM598 707h424q188 0 240 8q141 23 141 176q0 113 -60.5 143.5t-279.5 30.5h-465v-358z" />
<glyph unicode="Q" horiz-adv-x="2125" d="M113 426v524q0 178 184 301q164 109 362 109h590q217 0 418 -94q233 -111 234 -269v-571q0 -37 -6.5 -65.5t-18.5 -63.5l209 -94l-184 -172l-185 82q-86 -55 -208 -85t-236 -30q-16 -2 -72.5 -3t-95.5 -1q-227 0 -298 1t-124 5q-231 0 -393 111q-176 119 -176 315z M537 528q0 -133 65.5 -206.5t204.5 -73.5h340q120 0 192 33l-401 182l123 199l405 -183q4 16 4 49v258q0 139 -71 209q-80 78 -252 78h-340q-137 0 -203.5 -74.5t-66.5 -212.5v-258z" />
<glyph unicode="R" horiz-adv-x="2000" d="M180 0v1358h1010q371 0 526.5 -91t155.5 -331q0 -133 -90 -229q-100 -106 -283 -125q176 0 262 -72t86 -203v-307h-428v264q0 88 -73.5 122t-219.5 34h-532v-420h-414zM594 713h532q176 0 243 33.5t67 138.5q0 96 -39 127q-57 45 -246 45h-557v-344z" />
<glyph unicode="S" horiz-adv-x="1867" d="M96 391q0 10 3 34t3 32h404q0 -113 33 -150q45 -51 196 -51l295 -2q160 0 203 6q125 18 125 148q0 104 -86 141q-59 26 -210 26h-11q-43 0 -88 -1t-91 -1q-418 0 -565 62q-203 84 -203 346q0 223 173.5 304t650.5 81q264 0 399 -20q193 -29 289 -107q113 -90 113 -256 v-70h-410q0 119 -75 146.5t-335 27.5q-221 0 -302 -28.5t-81 -102.5q0 -88 53 -113.5t207 -25.5h201q258 0 387 -18q195 -29 289 -105q113 -92 113 -266q0 -213 -119 -313q-100 -86 -314 -109q-113 -12 -434 -12q-293 0 -424 18q-190 27 -284 109q-104 90 -105 270z" />
<glyph unicode="T" horiz-adv-x="1632" d="M4 1055v303h1618v-303h-600v-1055h-428v1055h-590z" />
<glyph unicode="U" horiz-adv-x="2093" d="M188 492v864h424v-864q0 -129 88 -170q74 -35 283 -35h135q223 0 279 18q96 31 96 154v897h424v-897q0 -246 -210 -357.5t-638 -111.5q-461 0 -649 90q-231 111 -232 412z" />
<glyph unicode="V" horiz-adv-x="1882" d="M-29 1358h437l532 -1090l533 1090h438l-668 -1358h-612z" />
<glyph unicode="W" horiz-adv-x="2797" d="M-12 1358h432l364 -989l336 989h477l416 -989l375 989h436l-565 -1358h-502l-409 956l-318 -956h-493z" />
<glyph unicode="X" horiz-adv-x="1925" d="M-33 0l674 700l-625 658h496l455 -514l454 514h482l-607 -658l656 -700h-490l-495 549l-502 -549h-498z" />
<glyph unicode="Y" horiz-adv-x="1857" d="M-33 1358h482l475 -555l475 555h489l-762 -840v-518h-417v516z" />
<glyph unicode="Z" horiz-adv-x="1800" d="M70 0v244l1085 813h-1040v301h1601v-289l-1098 -817h1098l15 -252h-1661z" />
<glyph unicode="[" horiz-adv-x="964" d="M168 -203v1561h641v-223h-252v-1115h252v-223h-641z" />
<glyph unicode="\" horiz-adv-x="1892" d="M203 1358h297l1376 -1561h-295z" />
<glyph unicode="]" horiz-adv-x="964" d="M156 20h252v1113h-252v225h641v-1561h-641v223z" />
<glyph unicode="^" d="M63 1153l506 608h420l502 -608h-369l-346 408l-346 -408h-367z" />
<glyph unicode="_" d="M-2 -125h1563v-154h-1563v154z" />
<glyph unicode="`" d="M473 1190l135 158l479 -203l-90 -101z" />
<glyph unicode="a" horiz-adv-x="1636" d="M127 281q0 174 145 245q127 63 402 64q131 0 200.5 -5t124.5 -20q25 -6 46.5 -20.5t44.5 -32.5l2 106q0 104 -58.5 134t-230.5 30h-60q-66 0 -108.5 -8t-63.5 -33q-14 -23 -14 -63v-31h-379q0 197 176 264q125 47 434 47q348 0 492 -55q193 -74 193 -285v-618h-373l6 90 q-76 -66 -191 -88q-84 -16 -253 -16q-256 0 -386 61q-150 72 -149 234zM504 305q0 -86 67 -112q50 -19 197 -19q160 0 219 14q111 27 111 109q0 78 -117 102q-66 14 -203 15q-106 0 -190 -26t-84 -83z" />
<glyph unicode="b" horiz-adv-x="1650" d="M168 0v1358h373v-520q82 45 133 67q161 70 274 70q360 0 482 -123q96 -98 96 -352q0 -268 -84 -369q-119 -141 -488 -141q-150 0 -243 27.5t-170 101.5v-119h-373zM541 444q0 -145 39 -186q57 -59 272 -59q188 0 252 65q49 51 49 180v113q0 129 -45 166q-57 47 -256 47 q-207 0 -259 -41t-52 -172v-113z" />
<glyph unicode="c" horiz-adv-x="1529" d="M135 440q0 287 107 389q137 131 553 132q326 0 465 -52q188 -70 188 -262l-6 -49h-355q0 111 -71 141q-53 23 -228 23q-147 0 -194 -31q-80 -51 -80 -227v-88q0 -127 41 -168q55 -57 240 -58q188 0 241 31q62 37 62 160h364q0 -229 -142 -311t-525 -82q-367 0 -508 92 q-152 98 -152 360z" />
<glyph unicode="d" horiz-adv-x="1644" d="M127 516q0 229 94 328q123 129 453 129q160 0 257 -21.5t169 -89.5v496h381v-1358h-365v113q-76 -74 -171 -98.5t-265 -24.5q-369 0 -481 151q-72 98 -72 375zM494 440q0 -145 62 -196t235 -51q172 0 233 34q76 43 76 176v154q0 109 -58 156q-70 57 -258 57 q-172 0 -239 -61q-51 -47 -51 -152v-117z" />
<glyph unicode="e" horiz-adv-x="1581" d="M119 498q0 260 123 356q139 109 536 109q428 0 565 -125q115 -104 115 -416h-966q0 -141 47 -184q63 -57 282 -58q141 0 187 17q84 31 84 129h360q0 -227 -184 -295q-117 -43 -447 -43q-444 0 -583 114q-119 98 -119 396zM492 590h600q0 115 -55.5 147.5t-248.5 32.5 q-172 0 -234 -38t-62 -142z" />
<glyph unicode="f" horiz-adv-x="964" d="M37 741v244h196v64q0 70 13.5 125t58.5 94q74 66 169 84t292 18h174v-227q-80 12 -123 12q-14 0 -31.5 -2t-25.5 -2q-102 0 -129 -18.5t-27 -83.5v-64h344v-244h-344v-741h-371v741h-196z" />
<glyph unicode="g" horiz-adv-x="1650" d="M123 481q0 246 96 348q125 133 477 134q168 0 255 -24t165 -101v112h363v-964q0 -236 -151.5 -322t-524.5 -86q-215 0 -324 19q-184 31 -254 118q-33 43 -41 88t-8 125h356q0 -92 66 -114q37 -12 188 -13q172 0 240 27q90 35 90 137v158q-51 -82 -168 -115 q-91 -26 -232 -26h-11q-326 0 -454 109.5t-128 389.5zM506 446q0 -131 45 -174q60 -57 250 -57q199 0 270 78q45 49 45 153v74q0 88 -45 135q-74 76 -270 76q-178 0 -236.5 -43t-58.5 -168v-74z" />
<glyph unicode="h" horiz-adv-x="1660" d="M168 0v1358h371l2 -518q76 78 170 107.5t250 29.5q272 0 398 -76t126 -250v-651h-375v526q0 96 -45 131q-55 43 -205 43q-182 0 -250.5 -51t-68.5 -170v-479h-373z" />
<glyph unicode="i" horiz-adv-x="655" d="M154 0v963h346v-963h-346zM154 1135v223h346v-223h-346z" />
<glyph unicode="j" horiz-adv-x="624" d="M-47 -135q94 0 127 29.5t33 91.5v975h354v-994q0 -145 -78 -217q-90 -82 -299 -82q-23 0 -56.5 4t-80.5 11v182zM111 1128v226h362v-226h-362z" />
<glyph unicode="k" horiz-adv-x="1497" d="M172 2v1356h363v-733h53l368 338h428l-489 -453l616 -510l-458 4l-463 387h-55v-389h-363z" />
<glyph unicode="l" horiz-adv-x="698" d="M176 0v1358h352v-1358h-352z" />
<glyph unicode="m" horiz-adv-x="2402" d="M172 0v950h365v-108q76 68 157.5 93.5t220.5 25.5q182 0 287 -31q143 -43 176 -144q33 88 136.5 131.5t263.5 43.5q272 0 397 -89.5t125 -267.5v-604h-383v559q0 98 -39 131q-49 41 -201 41q-129 0 -174 -22q-80 -41 -80 -174v-535h-385v567q0 94 -37 125q-47 39 -200 39 q-160 0 -211 -49q-43 -41 -43 -154v-528h-375z" />
<glyph unicode="n" horiz-adv-x="1513" d="M168 0v950h373v-116q82 76 160.5 103.5t226.5 27.5q276 0 400 -71t124 -249v-645h-371v559q0 104 -43 137q-49 39 -209 39q-289 0 -288 -190v-545h-373z" />
<glyph unicode="o" horiz-adv-x="1615" d="M141 428v111q0 250 142.5 337t541.5 87q401 0 546 -92.5t145 -350.5v-108q0 -254 -133.5 -339t-557.5 -85q-399 0 -536 84q-147 90 -148 356zM522 430q0 -127 33 -164q49 -55 236 -55h83q170 0 218.5 42t48.5 175v92q0 139 -33 174q-45 47 -234 47h-83q-186 0 -234 -47 q-35 -35 -35 -174v-90z" />
<glyph unicode="p" horiz-adv-x="1652" d="M168 -397v1347h364v-106q78 70 172 93.5t244 23.5q362 0 486 -127q94 -98 94 -353q0 -313 -154 -415q-131 -86 -405 -86q-160 0 -242 18q-104 25 -182 92l-6 -487h-371zM537 422q0 -113 65.5 -171t202.5 -58h84q141 0 203.5 50t62.5 177v92q0 129 -53 180q-59 57 -213 58 h-84q-166 0 -221 -56q-47 -47 -47 -182v-90z" />
<glyph unicode="q" horiz-adv-x="1658" d="M131 459q0 260 86 360q121 141 483 142q168 0 258.5 -20.5t167.5 -92.5v106h371v-1351h-373v512q-57 -68 -164.5 -101.5t-250.5 -33.5q-352 0 -478 129q-100 102 -100 350zM504 424q0 -113 64.5 -171t203.5 -58h84q141 0 203.5 50t62.5 177v92q0 129 -53 180 q-59 57 -213 58h-84q-166 0 -221 -56q-47 -47 -47 -182v-90z" />
<glyph unicode="r" horiz-adv-x="1310" d="M172 0v950h373v-121q66 45 106 68q127 68 228 68q236 0 331 -86q82 -74 82 -232v-82h-348v62q0 70 -22 86q-32 24 -141 24h-9q-125 0 -180 -57q-47 -49 -47 -139v-541h-373z" />
<glyph unicode="s" horiz-adv-x="1546" d="M104 256v66h377q0 -88 51 -111q35 -14 179 -14h104q31 0 59.5 -1t55.5 -1q74 0 107.5 18t33.5 76q0 59 -42 75.5t-142 16.5q-297 0 -375 6q-193 14 -285 74q-114 71 -114 220q0 140 112 208q131 78 516 78q184 0 318.5 -13.5t222.5 -60.5q109 -57 109 -166q0 -20 -2 -31 q-8 -18 -11 -26h-350q0 59 -96 80q-31 6 -98 10l-150 -2q-70 -2 -102 -8q-104 -18 -105 -74q0 -55 24.5 -68.5t96.5 -13.5h53q297 0 357 -4q201 -14 305 -70q129 -68 129 -211q0 -193 -187 -266q-145 -57 -467 -57q-311 0 -456 39q-227 61 -228 231z" />
<glyph unicode="t" horiz-adv-x="1179" d="M10 735v223h183v205h370v-205h541v-223h-541v-407q0 -72 15 -95q26 -40 110 -40h4q96 0 127 36q25 29 25 97v61h311l8 -63q0 -178 -104.5 -257t-378.5 -79q-264 0 -371 59q-117 66 -116 232v456h-183z" />
<glyph unicode="u" horiz-adv-x="1644" d="M174 319v629h375v-555q0 -102 37 -135q47 -43 196 -43q182 0 260 80q57 59 58 154v499h373v-948h-357v150q-41 -84 -156.5 -124t-287.5 -40q-254 0 -376 83t-122 250z" />
<glyph unicode="v" horiz-adv-x="1366" d="M-16 950h383l323 -735l299 735h387l-418 -950h-532z" />
<glyph unicode="w" horiz-adv-x="2017" d="M4 950h371l243 -669l189 669h383l240 -706l196 706h369l-336 -950h-445l-202 707l-226 -707h-446z" />
<glyph unicode="x" horiz-adv-x="1386" d="M-18 0l475 500l-416 450h422l231 -280l230 280h428l-414 -450l461 -500h-434l-271 326l-270 -326h-442z" />
<glyph unicode="y" horiz-adv-x="1347" d="M-16 954h387l344 -759l264 759h385l-385 -1009q-74 -190 -160 -262q-127 -104 -391 -105q-39 0 -75 2t-79 10v191l93 -8q117 0 178 71q43 51 67 146h-147z" />
<glyph unicode="z" horiz-adv-x="1318" d="M59 0v238l721 495h-657v217h1130v-225l-737 -506h737v-219h-1194z" />
<glyph unicode="{" d="M346 395v221q96 16 134 54.5t38 105.5v291q0 156 105 229q121 86 497 86h80v-256q-160 0 -209 -20q-80 -33 -80 -152v-219q0 -90 -24 -137q-31 -57 -119 -98q84 -41 117 -103q27 -51 26 -135v-221q0 -119 66 -154q53 -28 223 -28v-240l-80 -4h-102q-238 0 -342 49 q-158 74 -158 287v274q0 70 -31 107q-39 45 -141 63z" />
<glyph unicode="|" d="M588 -340v1696h381v-1696h-381z" />
<glyph unicode="}" d="M358 -137q160 0 209 20q80 33 80 154v217q0 88 29 142.5t115 95.5q-84 41 -114 96t-30 141v219q0 119 -65 156q-54 29 -224 29v239l82 2q309 0 402 -31q199 -66 198 -305v-272q0 -70 31 -107q39 -47 141 -65v-219q-94 -16 -133 -55t-39 -105v-291q0 -201 -178 -268 q-125 -47 -422 -47h-82v254z" />
<glyph unicode="~" horiz-adv-x="1472" d="M39 711q84 115 180 172q123 74 287 73q92 0 291 -77q94 -37 178 -37q76 0 139 39q49 31 98 88l218 -103q-86 -115 -187 -176q-127 -78 -287 -78q-90 0 -280 80q-92 39 -182 39q-80 0 -144 -37q-47 -27 -100 -88z" />
<glyph horiz-adv-x="1966" d="M-12 0l692 1358h592l704 -1358h-432l-131 254h-856l-125 -254h-444zM544 1479v162h299v-162h-299zM688 547h596l-301 563zM1091 1479v162h297v-162h-297z" />
<glyph horiz-adv-x="1966" d="M-12 0l692 1358h592l704 -1358h-432l-131 254h-856l-125 -254h-444zM688 547h596l-301 563zM741 1596q0 84 68 143.5t174 59.5q98 0 168.5 -58.5t70.5 -138.5t-70.5 -138.5t-170.5 -58.5q-96 0 -168 57.5t-72 133.5zM837 1598q0 -43 43 -78t99 -35q59 0 104 35t45 82 t-43 80t-104 33q-59 0 -101.5 -35t-42.5 -82z" />
<glyph horiz-adv-x="1529" d="M135 440q0 287 107 389q137 131 553 132q326 0 465 -52q188 -70 188 -262l-6 -49h-355q0 111 -71 141q-53 23 -228 23q-147 0 -194 -31q-80 -51 -80 -227v-88q0 -127 41 -168q55 -57 240 -58q188 0 241 31q62 37 62 160h364q0 -229 -142 -311t-525 -82q-367 0 -508 92 q-152 98 -152 360zM530 -164l369 132l125 -148l-408 -88z" />
<glyph horiz-adv-x="1581" d="M119 498q0 260 123 356q139 109 536 109q428 0 565 -125q115 -104 115 -416h-966q0 -141 47 -184q63 -57 282 -58q141 0 187 17q84 31 84 129h360q0 -227 -184 -295q-117 -43 -447 -43q-444 0 -583 114q-119 98 -119 396zM492 590h600q0 115 -55.5 147.5t-248.5 32.5 q-172 0 -234 -38t-62 -142zM721 1145l477 203l137 -158l-530 -146z" />
<glyph horiz-adv-x="1581" d="M119 498q0 260 123 356q139 109 536 109q428 0 565 -125q115 -104 115 -416h-966q0 -141 47 -184q63 -57 282 -58q141 0 187 17q84 31 84 129h360q0 -227 -184 -295q-117 -43 -447 -43q-444 0 -583 114q-119 98 -119 396zM471 1186l135 158l479 -203l-90 -101zM492 590 h600q0 115 -55.5 147.5t-248.5 32.5q-172 0 -234 -38t-62 -142z" />
<glyph horiz-adv-x="1581" d="M119 498q0 260 123 356q139 109 536 109q428 0 565 -125q115 -104 115 -416h-966q0 -141 47 -184q63 -57 282 -58q141 0 187 17q84 31 84 129h360q0 -227 -184 -295q-117 -43 -447 -43q-444 0 -583 114q-119 98 -119 396zM330 1161l491 180l498 -180l-86 -104l-412 102 l-407 -102zM492 590h600q0 115 -55.5 147.5t-248.5 32.5q-172 0 -234 -38t-62 -142z" />
<glyph horiz-adv-x="1644" d="M174 319v629h375v-555q0 -102 37 -135q47 -43 196 -43q182 0 260 80q57 59 58 154v499h373v-948h-357v150q-41 -84 -156.5 -124t-287.5 -40q-254 0 -376 83t-122 250zM254 1196l135 158l479 -203l-90 -101z" />
<glyph horiz-adv-x="1644" d="M174 319v629h375v-555q0 -102 37 -135q47 -43 196 -43q182 0 260 80q57 59 58 154v499h373v-948h-357v150q-41 -84 -156.5 -124t-287.5 -40q-254 0 -376 83t-122 250zM334 1161l491 180l498 -180l-86 -104l-412 102l-407 -102z" />
<glyph unicode="&#xa0;" horiz-adv-x="1566" d="M207 743v224h416v393h319v-393h416v-224h-416v-1149h-319v1149h-416z" />
<glyph unicode="&#xa1;" horiz-adv-x="1249" d="M248 1047q0 129 106.5 221t270.5 92q156 0 265 -91t109 -216q0 -123 -111.5 -215.5t-264.5 -92.5q-147 0 -261 91.5t-114 210.5zM397 1049q0 -70 67.5 -123.5t156.5 -53.5q94 0 163.5 53.5t69.5 127.5q0 72 -69.5 125t-161.5 53q-94 0 -160 -53.5t-66 -128.5z" />
<glyph unicode="&#xa2;" horiz-adv-x="1957" d="M319 651q0 236 101 340q127 131 454 131v121h224v-121q281 0 404.5 -85t123.5 -285h-356q0 86 -34 119.5t-138 43.5v-565q121 14 157 58q31 35 31 131h356q0 -221 -112.5 -308.5t-431.5 -87.5v-149h-224v149q-352 0 -468 138q-86 102 -87 370zM700 604q0 -80 11.5 -136 t48.5 -83q16 -16 50 -24.5t64 -8.5v563q-106 -16 -145 -71q-29 -41 -29 -129v-111z" />
<glyph unicode="&#xa3;" horiz-adv-x="1957" d="M137 506v217h252v178q0 281 150.5 375t582.5 94q436 0 580 -82q162 -92 162 -383h-410q0 129 -56.5 174t-236.5 45h-39q-195 0 -256 -37.5t-61 -160.5v-203h549v-217h-549v-98q0 -61 -20.5 -99.5t-75.5 -72.5l1173 2v-238h-1687v233q121 0 165 68q29 43 29 137v68h-252z " />
<glyph unicode="&#xa4;" horiz-adv-x="1566" d="M123 516q0 104 22 152q33 68 123 98q-61 45 -78.5 104.5t-17.5 151.5q0 170 104 252q121 94 496 94h35q291 0 401 -45q176 -72 176 -287v-92h-315q0 125 -48 158t-196 33h-116q-131 0 -169 -22.5t-38 -92.5q0 -90 63 -113q14 -4 111 -22l411 -84q213 -37 277 -90 q76 -63 76 -236q0 -88 -21 -139q-28 -72 -100 -111q82 -41 106 -106q18 -49 19 -152q0 -174 -88 -262q-76 -76 -236 -102q-113 -18 -338 -19q-360 0 -475 64q-160 88 -160 381h314q0 -111 28 -150q37 -51 146 -51q20 -2 72.5 -4t134.5 -2q141 0 190 16q84 27 84 121 q0 76 -45 104q-27 16 -135 41l-539 95q-172 27 -227 100q-47 61 -47 217zM426 545q0 -76 25.5 -99.5t117.5 -42.5l379 -75q55 -11 96 -11q57 0 89 39q23 31 28 88q0 76 -37 101.5t-145 46.5l-334 70q-49 12 -100 12q-66 0 -92.5 -36t-26.5 -93z" />
<glyph unicode="&#xa5;" horiz-adv-x="1499" d="M496 584q0 80 68.5 137t170.5 57q100 0 172 -57t72 -137t-70.5 -138.5t-173.5 -58.5q-100 0 -169.5 59.5t-69.5 137.5z" />
<glyph unicode="&#xa6;" d="M588 334h381v-674h-381v674zM588 635v721h381v-721h-381z" />
<glyph unicode="&#xa7;" horiz-adv-x="1347" d="M162 -231v1175q0 252 101.5 337t400.5 85q315 0 426 -82q96 -72 96 -213q0 -119 -107 -192q-14 -10 -43 -21q-12 -4 -47 -16q158 -33 219 -140q51 -88 52 -253q0 -221 -80 -328q-102 -137 -361 -137q-63 0 -122.5 11t-133.5 36v217q33 -16 78 -33q66 -25 123 -25 q119 0 162 89q29 57 28 174q0 147 -30 204q-51 96 -207 97h-47q-35 0 -60 -4v172l43 -2q115 0 168 24q72 33 72 119q0 72 -61.5 95.5t-165.5 23.5q-139 0 -177 -47q-27 -35 -26 -154v-1212h-301z" />
<glyph unicode="&#xa8;" horiz-adv-x="1943" d="M104 680q0 291 252.5 497.5t612.5 206.5q354 0 607 -207.5t253 -496.5q0 -287 -252 -496t-608 -209q-354 0 -609.5 209t-255.5 496zM274 680q0 -231 204 -398t489 -167q287 0 489.5 168t202.5 397q0 233 -202 398t-490 165q-287 0 -490 -164t-203 -399zM592 274v811h418 q150 0 241 -49q115 -61 115 -178q0 -61 -34.5 -109t-100.5 -83q90 -41 108 -166q27 -180 50 -226h-207q-23 39 -28 184.5t-206 145.5h-147v-330h-209zM801 723h160q94 0 146 26.5t52 98.5q0 59 -51 83.5t-131 24.5h-176v-233z" />
<glyph unicode="&#xa9;" horiz-adv-x="1935" d="M104 680q0 291 252.5 497.5t612.5 206.5q354 0 607 -207.5t253 -496.5q0 -285 -253 -495t-607 -210t-609.5 209t-255.5 496zM274 680q0 -231 204 -398t489 -167q287 0 489.5 168t202.5 397q0 233 -202 398t-490 165q-287 0 -490 -164t-203 -399zM492 680q0 178 132 300 t349 122q174 0 293 -78q133 -86 147 -236h-164q-23 82 -99.5 118t-180.5 36q-131 0 -205 -80q-66 -72 -66 -182q0 -104 68 -176q76 -80 203 -80q119 0 196 49.5t95 149.5h167q-16 -166 -141 -262.5t-317 -96.5q-215 0 -346 119t-131 297z" />
<glyph unicode="&#xaa;" horiz-adv-x="2281" d="M14 1186v174h840v-174h-301v-639h-244v639h-295zM944 547v813h352l291 -602h-55l289 602h362v-813h-241l6 571l-285 -571h-205l-287 569l9 -569h-236z" />
<glyph unicode="&#xab;" d="M473 1145l477 203l137 -158l-530 -146z" />
<glyph unicode="&#xac;" d="M356 1100v162h299v-162h-299zM903 1100v162h297v-162h-297z" />
<glyph unicode="&#xad;" horiz-adv-x="737" d="M-2 387v234h737v-234h-737z" />
<glyph unicode="&#xae;" horiz-adv-x="2938" d="M-47 0l989 1358h1888v-295h-999v-242h936v-264h-936v-268h999v-289h-1419v279h-801l-186 -279h-471zM760 500h651v563h-188z" />
<glyph unicode="&#xaf;" horiz-adv-x="2129" d="M-2 -47v227l162 94q-14 25 -22.5 55.5t-10.5 59.5q-8 70 -11 126t-3 147v38q0 387 157 512q180 141 764 142h140q215 0 329 -19q166 -27 291 -104l295 170v-232l-156 -88q25 -51 36 -125.5t11 -146.5l-2 -145q0 -266 -43 -375q-59 -154 -248.5 -221.5t-601.5 -67.5h-129 q-231 0 -352 16q-193 27 -307 105zM541 575l8 -75l926 551q-53 37 -133 48t-181 11h-237q-211 0 -293 -59.5t-82 -200.5q0 -45 -4 -155.5t-4 -119.5zM621 305q37 -31 94 -44t125 -13l213 -4q354 0 440 92q51 55 51 295v104v31q0 45 -6 88z" />
<glyph unicode="&#xb1;" horiz-adv-x="1249" d="M37 74v151h1171v-151h-1171zM37 655v148h495v389h179v-389h497v-148h-497v-381h-179v381h-495z" />
<glyph unicode="&#xb2;" horiz-adv-x="1095" d="M74 692v176q0 137 108 189q76 35 270.5 54t252.5 42q74 31 73 104q0 39 -53 58.5t-174 19.5q-139 0 -187.5 -18.5t-48.5 -71.5v-37h-241v45q0 59 21.5 101.5t68.5 87.5q55 51 178 67q63 8 209 9q254 0 352 -45q123 -55 123 -216q0 -135 -86 -204q-74 -59 -221 -84 q-66 -10 -295 -31q-72 -8 -89.5 -25.5t-17.5 -66.5v-10h709v-144h-952z" />
<glyph unicode="&#xb3;" horiz-adv-x="1105" d="M51 909q-2 16 4 54h242q0 -80 35 -104.5t166 -24.5h49q117 0 147 4q92 12 92 86q0 55 -36.5 67.5t-153.5 12.5h-154v161l142 2h51q88 0 110.5 11.5t22.5 66.5q0 53 -54.5 66.5t-176.5 13.5q-143 0 -180.5 -19.5t-43.5 -91.5h-241q0 141 96 209q109 76 348 76 q248 0 344 -29q156 -47 156 -188q0 -82 -39 -121q-45 -47 -162 -61q123 -12 171 -54t48 -131q0 -119 -133 -185t-358 -66q-215 0 -353.5 66.5t-138.5 178.5z" />
<glyph unicode="&#xb4;" horiz-adv-x="1566" d="M49 1358h365l362 -555l365 555h375l-265 -377h185v-219h-338l-90 -125h428v-217h-512v-420h-301v420h-494v217h412l-84 125h-328v219h176z" />
<glyph unicode="&#xb5;" horiz-adv-x="1761" d="M184 -344v1321h375v-531q0 -74 6 -98q14 -53 62 -92q47 -35 113.5 -57.5t138.5 -22.5q160 0 247 92q74 78 74 191v518h377v-987h-377v123q-51 -63 -134 -104.5t-192 -41.5q-104 0 -176.5 26.5t-138.5 80.5v-418h-375z" />
<glyph unicode="&#xb9;" horiz-adv-x="901" d="M86 1272l403 248h293v-822h-239v666l-305 -201z" />
<glyph unicode="&#xbb;" horiz-adv-x="1957" d="M459 557v137h1038v-137h-1038zM535 946q0 111 83.5 154t251.5 43q84 0 140.5 -5t97.5 -30l2 39q0 57 -33 72.5t-129 15.5q-70 0 -100.5 -5t-30.5 -73h-252q0 129 107 172q76 31 268 31q231 0 313 -33q111 -45 111 -180v-377h-254l6 43q-47 -31 -104.5 -40t-145.5 -9 q-162 0 -241 39q-90 45 -90 143zM782 965q0 -43 30 -56.5t91 -13.5h43h31q66 0 99.5 12.5t33.5 53.5q0 29 -27.5 43t-124.5 14q-123 0 -149.5 -9.5t-26.5 -43.5z" />
<glyph unicode="&#xbc;" horiz-adv-x="2990" d="M137 1128l404 248h293v-821h-240v666l-305 -201zM694 -10l1340 1358h295l-1346 -1358h-289zM1767 170v182l555 465h361v-485h145v-162h-145v-174h-242v174h-674zM1993 332h444l2 344z" />
<glyph unicode="&#xbd;" horiz-adv-x="3000" d="M76 1128l403 248h293v-821h-240v666l-305 -201zM694 -10l1340 1358h295l-1346 -1358h-289zM1968 -4v176q0 137 109 188q76 35 270.5 54.5t251.5 42.5q74 31 74 104q0 39 -53.5 58.5t-174.5 19.5q-139 0 -187 -18.5t-48 -71.5v-37h-242v45q0 59 21.5 101t68.5 87 q55 51 178 68q63 8 209 8q254 0 353 -45q123 -55 122 -215q0 -135 -86 -205q-74 -59 -221 -84q-66 -10 -295 -30q-72 -8 -89 -25.5t-17 -66.5v-11h708v-143h-952z" />
<glyph unicode="&#xbe;" horiz-adv-x="2959" d="M102 776q-2 16 4 53h242q0 -80 35 -104.5t166 -24.5h49q117 0 147 5q92 12 93 86q0 55 -37 67t-154 12h-153v162l141 2h51q88 0 110.5 11.5t22.5 66.5q0 53 -54 66.5t-177 13.5q-143 0 -180 -19.5t-43 -91.5h-242q0 141 96 209q109 76 348 76q248 0 344 -29 q156 -47 156 -188q0 -82 -39 -121q-45 -47 -162 -61q123 -12 171 -54.5t48 -130.5q0 -119 -133 -185.5t-358 -66.5q-215 0 -353.5 67t-138.5 179zM694 -10l1340 1358h295l-1346 -1358h-289zM1788 170v182l555 465h360v-485h146v-162h-146v-174h-241v174h-674zM2013 332h445 l2 344z" />
<glyph unicode="&#xbf;" horiz-adv-x="1607" d="M-2 -35v172l152 80q-18 43 -23.5 92t-5.5 117q0 315 108 408q133 115 605 114q197 0 290 -12q160 -20 246 -82l236 125v-180l-133 -70q14 -37 20 -84t6 -88l-4 -182q0 -227 -170 -307q-147 -70 -522 -70q-197 0 -293 12q-162 20 -256 82zM496 391l579 318q-23 25 -74 34 t-114 9h-51h-29q-152 0 -197 -13q-84 -23 -97 -85t-15 -100t-2 -101v-27v-35zM549 238q31 -27 90 -35t139 -8h31q213 0 270 65q41 47 41 207v86z" />
<glyph unicode="&#xc0;" horiz-adv-x="1652" d="M141 360q0 104 13 152q23 84 94 139q51 39 299 107q166 45 166 186h379q0 -178 -41 -231q-53 -70 -267 -129q-84 -25 -168 -49q-106 -39 -106 -154q0 -98 53 -130t207 -32q209 0 262 17q94 29 94 143l-4 65h377q-10 -96 -18 -190q-20 -106 -111.5 -160.5t-251.5 -77.5 q-119 -16 -280 -16q-371 0 -510 57q-186 76 -187 303zM723 1090v276h369v-276h-369z" />
<glyph unicode="&#xc1;" horiz-adv-x="858" d="M248 0l24 915h344l23 -915h-391zM266 1079v275h355v-275h-355z" />
<glyph unicode="&#xc2;" horiz-adv-x="2048" d="M31 102v1291h1986v-1291h-1986zM127 745q0 -254 101.5 -406.5t271.5 -152.5q203 0 284 222q51 137 52 342v38t-2 25h-338v-195h131q0 -133 -29 -185t-94 -52q-156 0 -156 369q0 170 37 271t115 101q49 0 69.5 -27.5t34.5 -121.5l203 82q-76 258 -309 258 q-174 0 -272.5 -150.5t-98.5 -417.5zM883 991q0 -182 156.5 -294.5t156.5 -184.5q0 -53 -33 -88t-88 -35q-63 0 -153 60v-205q78 -57 180 -58q133 0 215 92t82 244q0 176 -157 294t-157 198q0 47 29 75.5t74 28.5q68 0 149 -67v209q-92 53 -182 53q-121 0 -196.5 -89 t-75.5 -233zM1407 1098h160v-893h207v893h161v198h-528v-198z" />
<glyph unicode="&#xc4;" horiz-adv-x="1957" d="M215 -283l53 205q39 -6 57.5 -7t47.5 -1q137 0 190 25.5t74 109.5l211 780h-244l55 201h238q78 291 152 361q126 120 505 120l187 -2l-58 -206l-112 4q-166 0 -221 -82q-14 -20 -62 -195h322l-56 -201h-319l-209 -790q-43 -190 -170 -257t-426 -67z" />
<glyph unicode="&#xc7;" horiz-adv-x="1466" d="M141 504l365 481l256 -94l-285 -385l305 -367l-245 -106zM682 512l367 481l262 -98l-293 -383l311 -373l-250 -100z" />
<glyph unicode="&#xc8;" horiz-adv-x="1466" d="M141 139l305 373l-286 383l256 98l366 -481l-395 -473zM682 139l307 365l-289 387l263 94l366 -481l-399 -471z" />
<glyph unicode="&#xc9;" horiz-adv-x="1980" d="M156 2v248h372v-248h-372zM801 2v248h379v-248h-379zM1452 2v248h371v-248h-371z" />
<glyph unicode="&#xca;" />
<glyph unicode="&#xcb;" horiz-adv-x="1966" d="M-12 0l692 1358h592l704 -1358h-432l-131 254h-856l-125 -254h-444zM448 1630l135 158l479 -203l-90 -101zM688 547h596l-301 563z" />
<glyph unicode="&#xcc;" horiz-adv-x="1966" d="M-12 0l692 1358h592l704 -1358h-432l-131 254h-856l-125 -254h-444zM418 1561q76 76 131 108q82 49 180 49q76 0 209 -45t213 -45q43 0 76.5 19.5t66.5 56.5l199 -67q-74 -78 -141 -115q-84 -45 -195 -45q-80 0 -209 43t-201 43q-39 0 -73 -21q-25 -14 -58 -47zM688 547 h596l-301 563z" />
<glyph unicode="&#xcd;" horiz-adv-x="1988" d="M113 426v524q0 178 184 301q164 109 362 109h631q246 0 418 -103q193 -114 193 -307v-524q0 -209 -209 -328q-178 -100 -420 -100q-16 -2 -72.5 -3t-95.5 -1q-227 0 -298 1t-124 5q-231 0 -393 111q-176 119 -176 315zM437 1561q76 76 131 108q82 49 180 49q76 0 209 -45 t213 -45q43 0 76.5 19.5t66.5 56.5l199 -67q-74 -78 -141 -115q-84 -45 -195 -45q-80 0 -209 43t-201 43q-39 0 -73 -21q-25 -14 -58 -47zM537 551q0 -133 65.5 -207t204.5 -74h340q174 0 248.5 70t74.5 211v248q0 141 -71 215q-80 84 -252 84h-340q-137 0 -203.5 -76 t-66.5 -213v-258z" />
<glyph unicode="&#xce;" horiz-adv-x="2816" d="M113 426v524q0 178 184 299q166 109 362 109h2089v-301h-1003v-232h956v-262h-956v-274h1014v-289h-2077q-231 0 -393 111q-176 119 -176 315zM537 551q0 -133 65.5 -207t204.5 -74h340q57 0 103 8.5t85 22.5v760q-74 37 -188 37h-340q-137 0 -203.5 -76t-66.5 -213v-258 z" />
<glyph unicode="&#xcf;" horiz-adv-x="2545" d="M141 428v111q0 250 142.5 337t541.5 87q352 0 504 -76q74 39 185.5 57.5t281.5 18.5q428 0 565 -125q115 -104 115 -416h-967q0 -141 47 -184q63 -57 283 -58q139 0 186 17q86 31 86 129h359q0 -227 -184 -295q-117 -43 -447 -43q-199 0 -328 15t-206 50 q-74 -33 -190 -49t-290 -16q-399 0 -536 84q-147 90 -148 356zM522 430q0 -127 33 -164q49 -55 236 -55h83q170 0 218.5 42t48.5 175v92q0 139 -33 174q-45 47 -234 47h-83q-186 0 -234 -47q-35 -35 -35 -174v-90zM1509 590h602q0 115 -55 147.5t-248 32.5 q-174 0 -236.5 -38t-62.5 -142z" />
<glyph unicode="&#xd0;" horiz-adv-x="2136" d="M2 588v221h207v549h1018q410 0 599 -119t189 -385l4 -227q0 -303 -121 -441q-164 -186 -602 -186h-1087v588h-207zM629 270h538q264 0 353 99q63 72 63 260v202q0 115 -74 166q-90 63 -319 64h-561v-252h280v-221h-280v-318z" />
<glyph unicode="&#xd1;" horiz-adv-x="1822" d="M39 387v234h1716v-234h-1716z" />
<glyph unicode="&#xd2;" horiz-adv-x="1177" d="M125 911v236q0 135 61 184q70 55 283 55h57v-129q-92 0 -129 -18t-37 -68h138v-260h-373zM639 911v236q0 135 61 184q70 55 281 55h53v-129q-90 0 -125 -18t-35 -68h136v-260h-371z" />
<glyph unicode="&#xd3;" horiz-adv-x="1177" d="M139 891v127q90 0 125 16.5t35 65.5h-133v258h369v-236q0 -135 -62 -182q-72 -55 -283 -55zM651 891v127q88 0 125 17.5t37 64.5h-137v258h373v-236q0 -133 -68 -185t-281 -52z" />
<glyph unicode="&#xd4;" horiz-adv-x="645" d="M127 911v236q0 137 57 184q68 55 269 55h53v-129q-86 0 -120 -18t-34 -68h129v-260h-354z" />
<glyph unicode="&#xd5;" horiz-adv-x="645" d="M139 891v127q86 0 119 16.5t33 65.5h-127v258h352v-236q0 -133 -63.5 -185t-262.5 -52z" />
<glyph unicode="&#xd6;" horiz-adv-x="1249" d="M37 639v152h1171v-152h-1171zM492 367q0 45 38 78.5t93 33.5t93 -33.5t38 -78.5q0 -47 -38 -81t-93 -34t-93 33.5t-38 81.5zM492 1065q0 43 39 77t92 34q57 0 96 -33t39 -78q0 -43 -41 -79t-94 -36t-92 35t-39 80z" />
<glyph unicode="&#xd7;" horiz-adv-x="1249" d="M131 420l369 295l-365 299l127 96l359 -295l364 301l129 -102l-371 -299l367 -299l-125 -99l-362 299l-367 -301z" />
<glyph unicode="&#xd8;" horiz-adv-x="1347" d="M-16 954h387l344 -759l264 759h385l-385 -1009q-74 -190 -160 -262q-127 -104 -391 -105q-39 0 -75 2t-79 10v191l93 -8q117 0 178 71q43 51 67 146h-147zM354 1096v162h299v-162h-299zM901 1096v162h297v-162h-297z" />
<glyph unicode="&#xd9;" horiz-adv-x="1857" d="M-33 1358h482l475 -555l475 555h489l-762 -840v-518h-417v516zM475 1479v162h299v-162h-299zM1022 1479v162h297v-162h-297z" />
<glyph unicode="&#xda;" horiz-adv-x="1564" d="M0 0l1286 1358h279l-1284 -1358h-281z" />
<glyph unicode="&#xdb;" horiz-adv-x="1757" d="M127 1159l182 144l242 -199q88 41 167 61.5t167 20.5q82 0 155.5 -20.5t157.5 -61.5l242 196l178 -143l-244 -194q104 -127 105 -269q0 -68 -25 -131t-70 -133l240 -188l-176 -148l-234 191q-160 -88 -342 -88q-78 0 -161.5 23.5t-169.5 64.5l-232 -191l-178 142l236 194 q-92 125 -93 266q0 70 25 132.5t74 132.5zM557 696q0 -104 96.5 -180t223.5 -76q133 0 226 75t93 181q0 104 -93 179t-226 75q-129 0 -224.5 -74.5t-95.5 -179.5z" />
<glyph unicode="&#xdc;" horiz-adv-x="903" d="M143 512l353 481l249 -98l-280 -383l297 -369l-236 -104z" />
<glyph unicode="&#xdd;" horiz-adv-x="1857" d="M-33 1358h482l475 -555l475 555h489l-762 -840v-518h-417v516zM817 1606l477 203l137 -158l-530 -146z" />
<glyph unicode="&#xde;" horiz-adv-x="1847" d="M193 0v1358h407v-158h440q313 0 519 -113q217 -121 217 -321q0 -199 -199 -314.5t-504 -115.5h-473v-336h-407zM600 555h377q170 0 274 47q121 55 121 164q0 111 -101.5 157t-281.5 46h-389v-414z" />
<glyph unicode="&#xdf;" horiz-adv-x="1417" d="M37 741v244h196v64q0 70 13.5 125t58.5 94q76 70 168 86t305 16h148v12h377v-1382h-377v741h-322v-741h-371v741h-196zM604 985h322v160q-55 8 -62 8q-18 2 -51 2h-27q-18 -4 -26 -4q-102 0 -129 -18.5t-27 -83.5v-64z" />
<glyph unicode="&#xe0;" horiz-adv-x="1566" d="M207 35v221h416v461h-416v223h416v420h319v-420h416v-223h-416v-461h416v-221h-416v-441h-319v441h-416z" />
<glyph unicode="&#xe1;" horiz-adv-x="1566" d="M643 575v250h279v-250h-279z" />
<glyph unicode="&#xe2;" horiz-adv-x="698" d="M139 -96q86 0 121 13t35 60l-4 9h-127v260h352v-236q0 -133 -59 -182q-70 -57 -267 -57h-51v133z" />
<glyph unicode="&#xe3;" horiz-adv-x="1177" d="M139 -96q86 0 123 17.5t37 64.5h-133v260h369v-236q0 -135 -62 -182q-74 -57 -283 -57h-51v133zM651 -96q88 0 125 17.5t37 64.5h-137v260h373v-236q0 -133 -64 -182q-74 -57 -285 -57h-49v133z" />
<glyph unicode="&#xe4;" horiz-adv-x="3543" d="M113 856v320q0 88 89 136t193 48h305q109 0 203 -47q109 -55 109 -137v-293q0 -111 -99 -170q-86 -53 -213 -54h-305q-111 0 -190 50q-92 55 -92 147zM322 932q0 -63 31.5 -91t107.5 -28h176q92 0 128 25.5t36 93.5v158q0 70 -36 97t-128 27h-176q-74 0 -106.5 -28.5 t-32.5 -95.5v-158zM479 0l1336 1358h262l-1340 -1358h-258zM1532 188v318q0 92 88 140t195 48h303q109 0 202 -49q109 -57 109 -139v-293q0 -109 -100 -168q-86 -51 -211 -51l-303 2q-111 0 -197 51t-86 141zM1739 266q0 -121 137 -121h176q94 0 131 25.5t37 95.5v158 q0 68 -38 95.5t-130 27.5h-176q-74 0 -105.5 -27.5t-31.5 -95.5v-158zM2566 188v318q0 92 88 140t195 48h303q109 0 203 -49q109 -57 108 -139v-293q0 -109 -100 -168q-86 -51 -211 -51l-303 2q-111 0 -197 51t-86 141zM2773 266q0 -121 137 -121h176q94 0 131 25.5t37 95.5 v158q0 68 -38 95.5t-130 27.5h-176q-74 0 -105.5 -27.5t-31.5 -95.5v-158z" />
<glyph unicode="&#xe5;" horiz-adv-x="1966" d="M-12 0l692 1358h592l704 -1358h-432l-131 254h-856l-125 -254h-444zM486 1560l491 180l498 -180l-86 -104l-412 102l-407 -102zM688 547h596l-301 563z" />
<glyph unicode="&#xe6;" horiz-adv-x="1716" d="M141 0v1358h1413v-301h-1003v-232h956v-262h-956v-274h1014v-289h-1424zM404 1550l491 180l498 -180l-86 -104l-412 102l-407 -102z" />
<glyph unicode="&#xe7;" horiz-adv-x="1966" d="M-12 0l692 1358h592l704 -1358h-432l-131 254h-856l-125 -254h-444zM688 547h596l-301 563zM891 1565l477 203l137 -158l-530 -146z" />
<glyph unicode="&#xe8;" horiz-adv-x="1716" d="M141 0v1358h1413v-301h-1003v-232h956v-262h-956v-274h1014v-289h-1424zM483 1479v162h299v-162h-299zM1030 1479v162h297v-162h-297z" />
<glyph unicode="&#xe9;" horiz-adv-x="1716" d="M141 0v1358h1413v-301h-1003v-232h956v-262h-956v-274h1014v-289h-1424zM418 1620l135 158l479 -203l-90 -101z" />
<glyph unicode="&#xea;" horiz-adv-x="765" d="M178 0v1358h400v-1358h-400zM182 1575l477 203l137 -158l-530 -146z" />
<glyph unicode="&#xeb;" horiz-adv-x="765" d="M-102 1581l491 180l498 -180l-86 -104l-412 102l-407 -102zM178 0v1358h400v-1358h-400z" />
<glyph unicode="&#xec;" horiz-adv-x="765" d="M-31 1479v162h299v-162h-299zM178 0v1358h400v-1358h-400zM516 1479v162h297v-162h-297z" />
<glyph unicode="&#xed;" horiz-adv-x="765" d="M-47 1620l135 158l479 -203l-90 -101zM178 0v1358h400v-1358h-400z" />
<glyph unicode="&#xee;" horiz-adv-x="1988" d="M113 426v524q0 178 184 301q164 109 362 109h631q246 0 418 -103q193 -114 193 -307v-524q0 -209 -209 -328q-178 -100 -420 -100q-16 -2 -72.5 -3t-95.5 -1q-227 0 -298 1t-124 5q-231 0 -393 111q-176 119 -176 315zM537 551q0 -133 65.5 -207t204.5 -74h340 q174 0 248.5 70t74.5 211v248q0 141 -71 215q-80 84 -252 84h-340q-137 0 -203.5 -76t-66.5 -213v-258zM805 1575l477 203l137 -158l-530 -146z" />
<glyph unicode="&#xef;" horiz-adv-x="1988" d="M113 426v524q0 178 184 301q164 109 362 109h631q246 0 418 -103q193 -114 193 -307v-524q0 -209 -209 -328q-178 -100 -420 -100q-16 -2 -72.5 -3t-95.5 -1q-227 0 -298 1t-124 5q-231 0 -393 111q-176 119 -176 315zM492 1591l491 180l498 -180l-86 -104l-412 102 l-407 -102zM537 551q0 -133 65.5 -207t204.5 -74h340q174 0 248.5 70t74.5 211v248q0 141 -71 215q-80 84 -252 84h-340q-137 0 -203.5 -76t-66.5 -213v-258z" />
<glyph unicode="&#xf1;" horiz-adv-x="1988" d="M113 426v524q0 178 184 301q164 109 362 109h631q246 0 418 -103q193 -114 193 -307v-524q0 -209 -209 -328q-178 -100 -420 -100q-16 -2 -72.5 -3t-95.5 -1q-227 0 -298 1t-124 5q-231 0 -393 111q-176 119 -176 315zM453 1620l135 158l479 -203l-90 -101zM537 551 q0 -133 65.5 -207t204.5 -74h340q174 0 248.5 70t74.5 211v248q0 141 -71 215q-80 84 -252 84h-340q-137 0 -203.5 -76t-66.5 -213v-258z" />
<glyph unicode="&#xf2;" horiz-adv-x="2093" d="M188 492v864h424v-864q0 -129 88 -170q74 -35 283 -35h135q223 0 279 18q96 31 96 154v897h424v-897q0 -246 -210 -357.5t-638 -111.5q-461 0 -649 90q-231 111 -232 412zM926 1575l477 203l137 -158l-530 -146z" />
<glyph unicode="&#xf3;" horiz-adv-x="2093" d="M188 492v864h424v-864q0 -129 88 -170q74 -35 283 -35h135q223 0 279 18q96 31 96 154v897h424v-897q0 -246 -210 -357.5t-638 -111.5q-461 0 -649 90q-231 111 -232 412zM553 1581l491 180l498 -180l-86 -104l-412 102l-407 -102z" />
<glyph unicode="&#xf4;" horiz-adv-x="2093" d="M188 492v864h424v-864q0 -129 88 -170q74 -35 283 -35h135q223 0 279 18q96 31 96 154v897h424v-897q0 -246 -210 -357.5t-638 -111.5q-461 0 -649 90q-231 111 -232 412zM516 1641l135 158l479 -203l-90 -101z" />
<glyph unicode="&#xf5;" horiz-adv-x="655" d="M154 0v963h346v-963h-346z" />
<glyph unicode="&#xf6;" d="M287 1161l491 180l498 -180l-86 -104l-412 102l-407 -102z" />
<glyph unicode="&#xf7;" d="M242 1141q76 76 131 108q82 49 180 49q76 0 209 -45t213 -45q43 0 76.5 19.5t66.5 56.5l199 -67q-74 -78 -141 -115q-84 -45 -195 -45q-80 0 -209 43t-201 43q-39 0 -73 -21q-25 -14 -58 -47z" />
<glyph unicode="&#xf9;" horiz-adv-x="1318" d="M154 1229l82 112l421 -108l422 108l88 -112l-510 -199z" />
<glyph unicode="&#xfb;" horiz-adv-x="716" d="M137 1231q0 84 68 143.5t174 59.5q98 0 168.5 -58.5t70.5 -138.5t-70.5 -138.5t-170.5 -58.5q-96 0 -168 57.5t-72 133.5zM233 1233q0 -43 43 -78t99 -35q59 0 104 35t45 82t-43 80t-104 33q-59 0 -101.5 -35t-42.5 -82z" />
<glyph unicode="&#xfc;" d="M532 -150l369 132l125 -148l-408 -88z" />
<glyph unicode="&#xfd;" horiz-adv-x="1347" d="M-16 954h387l344 -759l264 759h385l-385 -1009q-74 -190 -160 -262q-127 -104 -391 -105q-39 0 -75 2t-79 10v191l93 -8q117 0 178 71q43 51 67 146h-147zM612 1145l477 203l137 -158l-530 -146z" />
<glyph unicode="&#xfe;" horiz-adv-x="1779" d="M184 -328v1686h361v-529q88 88 204.5 135.5t280.5 47.5q313 0 492 -160q162 -145 161 -356q0 -217 -153 -365q-178 -170 -498 -170q-143 0 -271 47t-206 127v-463h-371zM551 485q0 -133 84 -219q100 -102 293 -102q197 0 299 100q86 86 86 221q0 127 -92 215 q-102 98 -289 99q-188 0 -291 -99q-90 -86 -90 -215z" />
<glyph unicode="&#xff;" d="M309 1321h207q20 -63 92 -102t172 -39q98 0 169 37.5t95 103.5h207q-33 -127 -157.5 -209t-313.5 -82q-188 0 -316 82t-155 209z" />
<glyph unicode="&#x152;" horiz-adv-x="1636" d="M127 281q0 174 145 245q127 63 402 64q131 0 200.5 -5t124.5 -20q25 -6 46.5 -20.5t44.5 -32.5l2 106q0 104 -58.5 134t-230.5 30h-60q-66 0 -108.5 -8t-63.5 -33q-14 -23 -14 -63v-31h-379q0 197 176 264q125 47 434 47q348 0 492 -55q193 -74 193 -285v-618h-373l6 90 q-76 -66 -191 -88q-84 -16 -253 -16q-256 0 -386 61q-150 72 -149 234zM504 305q0 -86 67 -112q50 -19 197 -19q160 0 219 14q111 27 111 109q0 78 -117 102q-66 14 -203 15q-106 0 -190 -26t-84 -83zM577 1237q0 84 68 143.5t174 59.5q98 0 168.5 -58.5t70.5 -138.5 t-70.5 -138.5t-170.5 -58.5q-96 0 -168 57.5t-72 133.5zM673 1239q0 -43 43 -78t99 -35q59 0 104 35t45 82t-43 80t-104 33q-59 0 -101.5 -35t-42.5 -82z" />
<glyph unicode="&#x153;" horiz-adv-x="1644" d="M174 319v629h375v-555q0 -102 37 -135q47 -43 196 -43q182 0 260 80q57 59 58 154v499h373v-948h-357v150q-41 -84 -156.5 -124t-287.5 -40q-254 0 -376 83t-122 250zM725 1145l477 203l137 -158l-530 -146z" />
<glyph unicode="&#x178;" horiz-adv-x="1644" d="M174 319v629h375v-555q0 -102 37 -135q47 -43 196 -43q182 0 260 80q57 59 58 154v499h373v-948h-357v150q-41 -84 -156.5 -124t-287.5 -40q-254 0 -376 83t-122 250zM354 1096v162h299v-162h-299zM901 1096v162h297v-162h-297z" />
<glyph unicode="&#x2c6;" horiz-adv-x="1636" d="M127 281q0 174 145 245q127 63 402 64q131 0 200.5 -5t124.5 -20q25 -6 46.5 -20.5t44.5 -32.5l2 106q0 104 -58.5 134t-230.5 30h-60q-66 0 -108.5 -8t-63.5 -33q-14 -23 -14 -63v-31h-379q0 197 176 264q125 47 434 47q348 0 492 -55q193 -74 193 -285v-618h-373l6 90 q-76 -66 -191 -88q-84 -16 -253 -16q-256 0 -386 61q-150 72 -149 234zM354 1196l135 158l479 -203l-90 -101zM504 305q0 -86 67 -112q50 -19 197 -19q160 0 219 14q111 27 111 109q0 78 -117 102q-66 14 -203 15q-106 0 -190 -26t-84 -83z" />
<glyph unicode="&#x2dc;" horiz-adv-x="1615" d="M141 428v111q0 250 142.5 337t541.5 87q401 0 546 -92.5t145 -350.5v-108q0 -254 -133.5 -339t-557.5 -85q-399 0 -536 84q-147 90 -148 356zM276 1196l135 158l479 -203l-90 -101zM522 430q0 -127 33 -164q49 -55 236 -55h83q170 0 218.5 42t48.5 175v92q0 139 -33 174 q-45 47 -234 47h-83q-186 0 -234 -47q-35 -35 -35 -174v-90z" />
<glyph unicode="&#x2000;" horiz-adv-x="904" />
<glyph unicode="&#x2001;" horiz-adv-x="1809" />
<glyph unicode="&#x2002;" horiz-adv-x="904" />
<glyph unicode="&#x2003;" horiz-adv-x="1809" />
<glyph unicode="&#x2004;" horiz-adv-x="603" />
<glyph unicode="&#x2005;" horiz-adv-x="452" />
<glyph unicode="&#x2006;" horiz-adv-x="301" />
<glyph unicode="&#x2007;" horiz-adv-x="301" />
<glyph unicode="&#x2008;" horiz-adv-x="226" />
<glyph unicode="&#x2009;" horiz-adv-x="361" />
<glyph unicode="&#x200a;" horiz-adv-x="100" />
<glyph unicode="&#x2010;" horiz-adv-x="737" d="M-2 387v234h737v-234h-737z" />
<glyph unicode="&#x2011;" horiz-adv-x="737" d="M-2 387v234h737v-234h-737z" />
<glyph unicode="&#x2012;" horiz-adv-x="737" d="M-2 387v234h737v-234h-737z" />
<glyph unicode="&#x2013;" horiz-adv-x="1513" d="M168 0v950h373v-116q82 76 160.5 103.5t226.5 27.5q276 0 400 -71t124 -249v-645h-371v559q0 104 -43 137q-49 39 -209 39q-289 0 -288 -190v-545h-373zM305 1141q76 76 131 108q82 49 180 49q76 0 209 -45t213 -45q43 0 76.5 19.5t66.5 56.5l199 -67q-74 -78 -141 -115 q-84 -45 -195 -45q-80 0 -209 43t-201 43q-39 0 -73 -21q-25 -14 -58 -47z" />
<glyph unicode="&#x2014;" horiz-adv-x="1615" d="M141 428v111q0 250 142.5 337t541.5 87q401 0 546 -92.5t145 -350.5v-108q0 -254 -133.5 -339t-557.5 -85q-399 0 -536 84q-147 90 -148 356zM522 430q0 -127 33 -164q49 -55 236 -55h83q170 0 218.5 42t48.5 175v92q0 139 -33 174q-45 47 -234 47h-83q-186 0 -234 -47 q-35 -35 -35 -174v-90zM688 1145l477 203l137 -158l-530 -146z" />
<glyph unicode="&#x2018;" horiz-adv-x="1581" d="M119 498q0 260 123 356q139 109 536 109q428 0 565 -125q115 -104 115 -416h-966q0 -141 47 -184q63 -57 282 -58q141 0 187 17q84 31 84 129h360q0 -227 -184 -295q-117 -43 -447 -43q-444 0 -583 114q-119 98 -119 396zM354 1096v162h299v-162h-299zM492 590h600 q0 115 -55.5 147.5t-248.5 32.5q-172 0 -234 -38t-62 -142zM901 1096v162h297v-162h-297z" />
<glyph unicode="&#x2019;" horiz-adv-x="655" d="M145 1141l387 213l99 -150l-426 -155zM154 0v963h346v-963h-346z" />
<glyph unicode="&#x201a;" horiz-adv-x="1935" d="M125 545v291q0 307 221 434q166 96 477 96h365q201 0 313 -20q166 -31 250 -115q68 -63 90 -162q14 -63 14 -186h-415q-14 66 -19 90q-10 41 -65 67q-35 16 -111 22.5t-205 6.5h-63q-141 0 -220 -6t-125 -44t-60.5 -90t-14.5 -153v-188q0 -201 64 -256q53 -45 237 -45h76 t80 2h26q41 0 80 -1t78 -1q127 0 182 20q72 27 72 103v100h414q0 -37 2 -66.5t4 -58.5q0 -221 -217 -317q-174 -78 -500 -78h-305q-422 0 -586 145q-139 123 -139 410zM530 -164l369 132l125 -148l-408 -88z" />
<glyph unicode="&#x201c;" horiz-adv-x="655" d="M-100 1223l96 149l385 -211l-57 -94zM154 0v963h346v-963h-346z" />
<glyph unicode="&#x201d;" horiz-adv-x="655" d="M-63 1155l395 197l387 -197l-57 -90l-330 115l-340 -115zM154 0v963h346v-963h-346z" />
<glyph unicode="&#x201e;" horiz-adv-x="2031" d="M111 0v1358h673l701 -1061v1061h420v-1358h-680l-713 1063v-1063h-401zM539 1561q76 76 131 108q82 49 180 49q76 0 209 -45t213 -45q43 0 76.5 19.5t66.5 56.5l199 -67q-74 -78 -141 -115q-84 -45 -195 -45q-80 0 -209 43t-201 43q-39 0 -73 -21q-25 -14 -58 -47z" />
<glyph unicode="&#x2022;" horiz-adv-x="655" d="M8 1102v164h219v-164h-219zM154 0v963h346v-963h-346zM453 1102v164h219v-164h-219z" />
<glyph unicode="&#x2026;" horiz-adv-x="1988" d="M113 426v524q0 178 184 301q164 109 362 109h631q246 0 418 -103q193 -114 193 -307v-524q0 -209 -209 -328q-178 -100 -420 -100q-16 -2 -72.5 -3t-95.5 -1q-227 0 -298 1t-124 5q-231 0 -393 111q-176 119 -176 315zM537 551q0 -133 65.5 -207t204.5 -74h340 q174 0 248.5 70t74.5 211v248q0 141 -71 215q-80 84 -252 84h-340q-137 0 -203.5 -76t-66.5 -213v-258zM600 1479v162h299v-162h-299zM1147 1479v162h297v-162h-297z" />
<glyph unicode="&#x202f;" horiz-adv-x="361" />
<glyph unicode="&#x2039;" horiz-adv-x="1636" d="M127 281q0 174 145 245q127 63 402 64q131 0 200.5 -5t124.5 -20q25 -6 46.5 -20.5t44.5 -32.5l2 106q0 104 -58.5 134t-230.5 30h-60q-66 0 -108.5 -8t-63.5 -33q-14 -23 -14 -63v-31h-379q0 197 176 264q125 47 434 47q348 0 492 -55q193 -74 193 -285v-618h-373l6 90 q-76 -66 -191 -88q-84 -16 -253 -16q-256 0 -386 61q-150 72 -149 234zM293 1141q76 76 131 108q82 49 180 49q76 0 209 -45t213 -45q43 0 76.5 19.5t66.5 56.5l199 -67q-74 -78 -141 -115q-84 -45 -195 -45q-80 0 -209 43t-201 43q-39 0 -73 -21q-25 -14 -58 -47zM504 305 q0 -86 67 -112q50 -19 197 -19q160 0 219 14q111 27 111 109q0 78 -117 102q-66 14 -203 15q-106 0 -190 -26t-84 -83z" />
<glyph unicode="&#x203a;" horiz-adv-x="1615" d="M141 428v111q0 250 142.5 337t541.5 87q401 0 546 -92.5t145 -350.5v-108q0 -254 -133.5 -339t-557.5 -85q-399 0 -536 84q-147 90 -148 356zM289 1141q76 76 131 108q82 49 180 49q76 0 209 -45t213 -45q43 0 76.5 19.5t66.5 56.5l199 -67q-74 -78 -141 -115 q-84 -45 -195 -45q-80 0 -209 43t-201 43q-39 0 -73 -21q-25 -14 -58 -47zM522 430q0 -127 33 -164q49 -55 236 -55h83q170 0 218.5 42t48.5 175v92q0 139 -33 174q-45 47 -234 47h-83q-186 0 -234 -47q-35 -35 -35 -174v-90z" />
<glyph unicode="&#x205f;" horiz-adv-x="452" />
<glyph unicode="&#x20ac;" horiz-adv-x="1935" d="M-4 502l49 116h1211l-50 -116h-1210zM-4 735l49 117h1309l-49 -117h-1309zM125 545v291q0 307 221 434q166 96 477 96h365q201 0 313 -20q166 -31 250 -115q68 -63 90 -162q14 -63 14 -186h-415q-14 66 -19 90q-10 41 -65 67q-35 16 -111 22.5t-205 6.5h-63 q-141 0 -220 -6t-125 -44t-60.5 -90t-14.5 -153v-188q0 -201 64 -256q53 -45 237 -45h76t80 2h26q41 0 80 -1t78 -1q127 0 182 20q72 27 72 103v100h414q0 -37 2 -66.5t4 -58.5q0 -221 -217 -317q-174 -78 -500 -78h-305q-422 0 -586 145q-139 123 -139 410z" />
<glyph unicode="&#x2122;" horiz-adv-x="1615" d="M141 428v111q0 250 142.5 337t541.5 87q401 0 546 -92.5t145 -350.5v-108q0 -254 -133.5 -339t-557.5 -85q-399 0 -536 84q-147 90 -148 356zM367 1161l491 180l498 -180l-86 -104l-412 102l-407 -102zM522 430q0 -127 33 -164q49 -55 236 -55h83q170 0 218.5 42 t48.5 175v92q0 139 -33 174q-45 47 -234 47h-83q-186 0 -234 -47q-35 -35 -35 -174v-90z" />
<glyph unicode="&#x25fc;" horiz-adv-x="952" d="M0 0v952h952v-952h-952z" />
</font>
</defs>
</svg>
